  0
SECTION
  2
HEADER
  9
$ACADVER
  1
AC1009
  9
$INSBASE
 10
0.000000
 20
0.000000
  9
$LIMMIN
 10
-133.360160
 20
-120.931940
  9
$LIMMAX
 10
1130.188240
 20
630.758200
  9
$EXTMIN
 10
-133.360160
 20
-120.931940
  9
$EXTMAX
 10
1130.188240
 20
630.758200
  9
$ATTMODE
 70
0
  9
$LUNITS
 70
2
  9
$LUPREC
 70
4
  9
$THICKNESS
 40
0.264160
  0
ENDSEC
  0
SECTION
  2
TABLES
  0
TABLE
  2
LTYPE
 70
1
  0
LTYPE
  3
Solid Line
  2
CONTINUOUS
 70
0
 72
65
 73
0
 40
0.000000
  0
ENDTAB
  0
TABLE
  2
LAYER
 70
10
  0
LAYER
  2
SPELL
 70
0
 62
4
  6
CONTINUOUS
  0
LAYER
  2
ASSEMBLY_TOP
 70
0
 62
7
  6
CONTINUOUS
  0
LAYER
  2
SILKSCREEN_TOP
 70
0
 62
7
  6
CONTINUOUS
  0
LAYER
  2
OUTLINE
 70
0
 62
7
  6
CONTINUOUS
  0
LAYER
  2
SILKSCREEN_BOTTOM
 70
0
 62
230
  6
CONTINUOUS
  0
LAYER
  2
SILKSCREEN_TOP
 70
0
 62
7
  6
CONTINUOUS
  0
LAYER
  2
ASSEMBLY_TOP
 70
0
 62
7
  6
CONTINUOUS
  0
LAYER
  2
TOP
 70
0
 62
1
  6
CONTINUOUS
  0
LAYER
  2
BOTTOM
 70
0
 62
132
  6
CONTINUOUS
  0
LAYER
  2
SILKSCREEN_TOP
 70
0
 62
7
  6
CONTINUOUS
  0
ENDTAB
  0
TABLE
  2
STYLE
 70
1
  0
STYLE
  2
STANDARD
 70
0
 40
0.000000
 41
1.000000
 50
0.000000
 71
0
 42
0.200000
  3
txt
  0
ENDTAB
  0
ENDSEC
  0
SECTION
  2
BLOCKS
  0
BLOCK
  8
0
  2
FIGURE_CIRCLE
 70
0
 10
0.000000
 20
0.000000
  0
CIRCLE
  8
0
 10
0.000000
 20
0.000000
 40
0.500000
  0
ENDBLK
  0
BLOCK
  8
0
  2
FIGURE_SQUARE
 70
0
 10
0.000000
 20
0.000000
  0
POLYLINE
  8
0
 66
1
 70
1
 40
0.000000
 41
0.000000
 39
0.000000
  0
VERTEX
  8
0
 10
-0.500000
 20
-0.500000
 40
0.000000
 41
0.000000
 42
0.000000
  0
VERTEX
  8
0
 10
-0.500000
 20
0.500000
 40
0.000000
 41
0.000000
 42
0.000000
  0
VERTEX
  8
0
 10
0.500000
 20
0.500000
 40
0.000000
 41
0.000000
 42
0.000000
  0
VERTEX
  8
0
 10
0.500000
 20
-0.500000
 40
0.000000
 41
0.000000
 42
0.000000
  0
SEQEND
  0
ENDBLK
  0
BLOCK
  8
0
  2
FIGURE_HEX
 70
0
 10
0.000000
 20
0.000000
  0
POLYLINE
  8
0
 66
1
 70
1
 40
0.000000
 41
0.000000
 39
0.000000
  0
VERTEX
  8
0
 10
-0.500000
 20
0.000000
 40
0.000000
 41
0.000000
 42
0.000000
  0
VERTEX
  8
0
 10
-0.250000
 20
0.500000
 40
0.000000
 41
0.000000
 42
0.000000
  0
VERTEX
  8
0
 10
0.250000
 20
0.500000
 40
0.000000
 41
0.000000
 42
0.000000
  0
VERTEX
  8
0
 10
0.500000
 20
0.000000
 40
0.000000
 41
0.000000
 42
0.000000
  0
VERTEX
  8
0
 10
0.250000
 20
-0.500000
 40
0.000000
 41
0.000000
 42
0.000000
  0
VERTEX
  8
0
 10
-0.250000
 20
-0.500000
 40
0.000000
 41
0.000000
 42
0.000000
  0
SEQEND
  0
ENDBLK
  0
BLOCK
  8
0
  2
FIGURE_OCT
 70
0
 10
0.000000
 20
0.000000
  0
POLYLINE
  8
0
 66
1
 70
1
 40
0.000000
 41
0.000000
 39
0.000000
  0
VERTEX
  8
0
 10
-0.500000
 20
-0.207100
 40
0.000000
 41
0.000000
 42
0.000000
  0
VERTEX
  8
0
 10
-0.500000
 20
0.207100
 40
0.000000
 41
0.000000
 42
0.000000
  0
VERTEX
  8
0
 10
-0.207100
 20
0.500000
 40
0.000000
 41
0.000000
 42
0.000000
  0
VERTEX
  8
0
 10
0.207100
 20
0.500000
 40
0.000000
 41
0.000000
 42
0.000000
  0
VERTEX
  8
0
 10
0.500000
 20
0.207100
 40
0.000000
 41
0.000000
 42
0.000000
  0
VERTEX
  8
0
 10
0.500000
 20
-0.207100
 40
0.000000
 41
0.000000
 42
0.000000
  0
VERTEX
  8
0
 10
0.207100
 20
-0.500000
 40
0.000000
 41
0.000000
 42
0.000000
  0
VERTEX
  8
0
 10
-0.207100
 20
-0.500000
 40
0.000000
 41
0.000000
 42
0.000000
  0
SEQEND
  0
ENDBLK
  0
BLOCK
  8
0
  2
FIGURE_OBLONG
 70
0
 10
0.000000
 20
0.000000
  0
POLYLINE
  8
0
 66
1
 70
1
 40
0.000000
 41
0.000000
 39
0.000000
  0
VERTEX
  8
0
 10
-0.500000
 20
-0.125000
 40
0.000000
 41
0.000000
 42
0.000000
  0
VERTEX
  8
0
 10
-0.500000
 20
0.125000
 40
0.000000
 41
0.000000
 42
0.000000
  0
VERTEX
  8
0
 10
-0.416000
 20
0.375000
 40
0.000000
 41
0.000000
 42
0.000000
  0
VERTEX
  8
0
 10
-0.250000
 20
0.500000
 40
0.000000
 41
0.000000
 42
0.000000
  0
VERTEX
  8
0
 10
0.250000
 20
0.500000
 40
0.000000
 41
0.000000
 42
0.000000
  0
VERTEX
  8
0
 10
0.416000
 20
0.375000
 40
0.000000
 41
0.000000
 42
0.000000
  0
VERTEX
  8
0
 10
0.500000
 20
0.125000
 40
0.000000
 41
0.000000
 42
0.000000
  0
VERTEX
  8
0
 10
0.500000
 20
-0.125000
 40
0.000000
 41
0.000000
 42
0.000000
  0
VERTEX
  8
0
 10
0.416000
 20
-0.375000
 40
0.000000
 41
0.000000
 42
0.000000
  0
VERTEX
  8
0
 10
0.250000
 20
-0.500000
 40
0.000000
 41
0.000000
 42
0.000000
  0
VERTEX
  8
0
 10
-0.250000
 20
-0.500000
 40
0.000000
 41
0.000000
 42
0.000000
  0
VERTEX
  8
0
 10
-0.416000
 20
-0.375000
 40
0.000000
 41
0.000000
 42
0.000000
  0
SEQEND
  0
ENDBLK
  0
BLOCK
  8
0
  2
FIGURE_TRI
 70
0
 10
0.000000
 20
0.000000
  0
POLYLINE
  8
0
 66
1
 70
1
 40
0.000000
 41
0.000000
 39
0.000000
  0
VERTEX
  8
0
 10
-0.500000
 20
-0.500000
 40
0.000000
 41
0.000000
 42
0.000000
  0
VERTEX
  8
0
 10
0.000000
 20
0.500000
 40
0.000000
 41
0.000000
 42
0.000000
  0
VERTEX
  8
0
 10
0.500000
 20
-0.500000
 40
0.000000
 41
0.000000
 42
0.000000
  0
SEQEND
  0
ENDBLK
  0
BLOCK
  8
0
  2
FIGURE_CROSS
 70
0
 10
0.000000
 20
0.000000
  0
POLYLINE
  8
0
 66
1
 70
0
 40
0.000000
 41
0.000000
 39
0.000000
  0
VERTEX
  8
0
 10
-0.500000
 20
0.000000
 40
0.000000
 41
0.000000
 42
0.000000
  0
VERTEX
  8
0
 10
0.500000
 20
0.000000
 40
0.000000
 41
0.000000
 42
0.000000
  0
SEQEND
  0
POLYLINE
  8
0
 66
1
 70
0
 40
0.000000
 41
0.000000
 39
0.000000
  0
VERTEX
  8
0
 10
0.000000
 20
0.500000
 40
0.000000
 41
0.000000
 42
0.000000
  0
VERTEX
  8
0
 10
0.000000
 20
-0.500000
 40
0.000000
 41
0.000000
 42
0.000000
  0
SEQEND
  0
ENDBLK
  0
BLOCK
  8
0
  2
FIGURE_DIAMOND
 70
0
 10
0.000000
 20
0.000000
  0
POLYLINE
  8
0
 66
1
 70
1
 40
0.000000
 41
0.000000
 39
0.000000
  0
VERTEX
  8
0
 10
-0.500000
 20
0.000000
 40
0.000000
 41
0.000000
 42
0.000000
  0
VERTEX
  8
0
 10
0.000000
 20
0.500000
 40
0.000000
 41
0.000000
 42
0.000000
  0
VERTEX
  8
0
 10
0.500000
 20
0.000000
 40
0.000000
 41
0.000000
 42
0.000000
  0
VERTEX
  8
0
 10
0.000000
 20
-0.500000
 40
0.000000
 41
0.000000
 42
0.000000
  0
SEQEND
  0
ENDBLK
  0
ENDSEC
  0
SECTION
  2
ENTITIES
  0
POLYLINE
  8
BOTTOM
 66
1
 70
1
 40
0.000000
 41
0.000000
 39
0.000000
  0
VERTEX
  8
BOTTOM
 10
51.150520
 20
4.475480
 40
0.000000
 41
0.000000
 42
0.000000
  0
VERTEX
  8
BOTTOM
 10
51.150520
 20
5.143500
 40
0.000000
 41
0.000000
 42
0.000000
  0
VERTEX
  8
BOTTOM
 10
49.941480
 20
5.143500
 40
0.000000
 41
0.000000
 42
0.000000
  0
VERTEX
  8
BOTTOM
 10
49.941480
 20
4.475480
 40
0.000000
 41
0.000000
 42
0.000000
  0
SEQEND
  0
POLYLINE
  8
BOTTOM
 66
1
 70
1
 40
0.000000
 41
0.000000
 39
0.000000
  0
VERTEX
  8
BOTTOM
 10
52.461160
 20
5.144770
 40
0.000000
 41
0.000000
 42
0.000000
  0
VERTEX
  8
BOTTOM
 10
52.461160
 20
4.476750
 40
0.000000
 41
0.000000
 42
0.000000
  0
VERTEX
  8
BOTTOM
 10
53.670200
 20
4.476750
 40
0.000000
 41
0.000000
 42
0.000000
  0
VERTEX
  8
BOTTOM
 10
53.670200
 20
5.144770
 40
0.000000
 41
0.000000
 42
0.000000
  0
SEQEND
  0
POLYLINE
  8
BOTTOM
 66
1
 70
1
 40
0.000000
 41
0.000000
 39
0.000000
  0
VERTEX
  8
BOTTOM
 10
51.150520
 20
5.674360
 40
0.000000
 41
0.000000
 42
0.000000
  0
VERTEX
  8
BOTTOM
 10
51.150520
 20
6.342380
 40
0.000000
 41
0.000000
 42
0.000000
  0
VERTEX
  8
BOTTOM
 10
49.941480
 20
6.342380
 40
0.000000
 41
0.000000
 42
0.000000
  0
VERTEX
  8
BOTTOM
 10
49.941480
 20
5.674360
 40
0.000000
 41
0.000000
 42
0.000000
  0
SEQEND
  0
POLYLINE
  8
BOTTOM
 66
1
 70
1
 40
0.000000
 41
0.000000
 39
0.000000
  0
VERTEX
  8
BOTTOM
 10
52.461160
 20
6.343650
 40
0.000000
 41
0.000000
 42
0.000000
  0
VERTEX
  8
BOTTOM
 10
52.461160
 20
5.675630
 40
0.000000
 41
0.000000
 42
0.000000
  0
VERTEX
  8
BOTTOM
 10
53.670200
 20
5.675630
 40
0.000000
 41
0.000000
 42
0.000000
  0
VERTEX
  8
BOTTOM
 10
53.670200
 20
6.343650
 40
0.000000
 41
0.000000
 42
0.000000
  0
SEQEND
  0
POLYLINE
  8
SILKSCREEN_BOTTOM
 66
1
 70
0
 40
0.000000
 41
0.000000
 39
0.000000
  0
VERTEX
  8
SILKSCREEN_BOTTOM
 10
53.205380
 20
6.659880
 40
0.200660
 41
0.200660
 42
0.000000
  0
VERTEX
  8
SILKSCREEN_BOTTOM
 10
50.406300
 20
6.659880
 40
0.200660
 41
0.200660
 42
0.000000
  0
VERTEX
  8
SILKSCREEN_BOTTOM
 10
50.408840
 20
6.426200
 40
0.200660
 41
0.200660
 42
0.000000
  0
VERTEX
  8
SILKSCREEN_BOTTOM
 10
50.662840
 20
6.680200
 40
0.200660
 41
0.200660
 42
0.000000
  0
VERTEX
  8
SILKSCREEN_BOTTOM
 10
50.789840
 20
6.680200
 40
0.200660
 41
0.200660
 42
0.000000
  0
VERTEX
  8
SILKSCREEN_BOTTOM
 10
50.535840
 20
6.426200
 40
0.200660
 41
0.200660
 42
0.000000
  0
VERTEX
  8
SILKSCREEN_BOTTOM
 10
50.408840
 20
6.426200
 40
0.200660
 41
0.200660
 42
0.000000
  0
SEQEND
  0
POLYLINE
  8
SILKSCREEN_BOTTOM
 66
1
 70
0
 40
0.000000
 41
0.000000
 39
0.000000
  0
VERTEX
  8
SILKSCREEN_BOTTOM
 10
50.406300
 20
4.160520
 40
0.200660
 41
0.200660
 42
0.000000
  0
VERTEX
  8
SILKSCREEN_BOTTOM
 10
53.205380
 20
4.160520
 40
0.200660
 41
0.200660
 42
0.000000
  0
SEQEND
  0
POLYLINE
  8
SILKSCREEN_BOTTOM
 66
1
 70
0
 40
0.000000
 41
0.000000
 39
0.000000
  0
VERTEX
  8
SILKSCREEN_BOTTOM
 10
50.535840
 20
7.061200
 40
0.149860
 41
0.149860
 42
1.000000
  0
VERTEX
  8
SILKSCREEN_BOTTOM
 10
50.281840
 20
7.061200
 40
0.149860
 41
0.149860
 42
1.000000
  0
VERTEX
  8
SILKSCREEN_BOTTOM
 10
50.535840
 20
7.061200
 40
0.149860
 41
0.149860
 42
0.000000
  0
SEQEND
  0
POLYLINE
  8
BOTTOM
 66
1
 70
1
 40
0.000000
 41
0.000000
 39
0.000000
  0
VERTEX
  8
BOTTOM
 10
49.413160
 20
24.631650
 40
0.000000
 41
0.000000
 42
0.000000
  0
VERTEX
  8
BOTTOM
 10
49.413160
 20
23.963630
 40
0.000000
 41
0.000000
 42
0.000000
  0
VERTEX
  8
BOTTOM
 10
50.622200
 20
23.963630
 40
0.000000
 41
0.000000
 42
0.000000
  0
VERTEX
  8
BOTTOM
 10
50.622200
 20
24.631650
 40
0.000000
 41
0.000000
 42
0.000000
  0
SEQEND
  0
POLYLINE
  8
BOTTOM
 66
1
 70
1
 40
0.000000
 41
0.000000
 39
0.000000
  0
VERTEX
  8
BOTTOM
 10
48.102520
 20
23.962360
 40
0.000000
 41
0.000000
 42
0.000000
  0
VERTEX
  8
BOTTOM
 10
48.102520
 20
24.630380
 40
0.000000
 41
0.000000
 42
0.000000
  0
VERTEX
  8
BOTTOM
 10
46.893480
 20
24.630380
 40
0.000000
 41
0.000000
 42
0.000000
  0
VERTEX
  8
BOTTOM
 10
46.893480
 20
23.962360
 40
0.000000
 41
0.000000
 42
0.000000
  0
SEQEND
  0
POLYLINE
  8
BOTTOM
 66
1
 70
1
 40
0.000000
 41
0.000000
 39
0.000000
  0
VERTEX
  8
BOTTOM
 10
49.413160
 20
23.432770
 40
0.000000
 41
0.000000
 42
0.000000
  0
VERTEX
  8
BOTTOM
 10
49.413160
 20
22.764750
 40
0.000000
 41
0.000000
 42
0.000000
  0
VERTEX
  8
BOTTOM
 10
50.622200
 20
22.764750
 40
0.000000
 41
0.000000
 42
0.000000
  0
VERTEX
  8
BOTTOM
 10
50.622200
 20
23.432770
 40
0.000000
 41
0.000000
 42
0.000000
  0
SEQEND
  0
POLYLINE
  8
BOTTOM
 66
1
 70
1
 40
0.000000
 41
0.000000
 39
0.000000
  0
VERTEX
  8
BOTTOM
 10
48.102520
 20
22.763480
 40
0.000000
 41
0.000000
 42
0.000000
  0
VERTEX
  8
BOTTOM
 10
48.102520
 20
23.431500
 40
0.000000
 41
0.000000
 42
0.000000
  0
VERTEX
  8
BOTTOM
 10
46.893480
 20
23.431500
 40
0.000000
 41
0.000000
 42
0.000000
  0
VERTEX
  8
BOTTOM
 10
46.893480
 20
22.763480
 40
0.000000
 41
0.000000
 42
0.000000
  0
SEQEND
  0
POLYLINE
  8
SILKSCREEN_BOTTOM
 66
1
 70
0
 40
0.000000
 41
0.000000
 39
0.000000
  0
VERTEX
  8
SILKSCREEN_BOTTOM
 10
47.358300
 20
22.448520
 40
0.200660
 41
0.200660
 42
0.000000
  0
VERTEX
  8
SILKSCREEN_BOTTOM
 10
50.157380
 20
22.448520
 40
0.200660
 41
0.200660
 42
0.000000
  0
VERTEX
  8
SILKSCREEN_BOTTOM
 10
50.154840
 20
22.682200
 40
0.200660
 41
0.200660
 42
0.000000
  0
VERTEX
  8
SILKSCREEN_BOTTOM
 10
49.900840
 20
22.428200
 40
0.200660
 41
0.200660
 42
0.000000
  0
VERTEX
  8
SILKSCREEN_BOTTOM
 10
49.773840
 20
22.428200
 40
0.200660
 41
0.200660
 42
0.000000
  0
VERTEX
  8
SILKSCREEN_BOTTOM
 10
50.027840
 20
22.682200
 40
0.200660
 41
0.200660
 42
0.000000
  0
VERTEX
  8
SILKSCREEN_BOTTOM
 10
50.154840
 20
22.682200
 40
0.200660
 41
0.200660
 42
0.000000
  0
SEQEND
  0
POLYLINE
  8
SILKSCREEN_BOTTOM
 66
1
 70
0
 40
0.000000
 41
0.000000
 39
0.000000
  0
VERTEX
  8
SILKSCREEN_BOTTOM
 10
50.157380
 20
24.947880
 40
0.200660
 41
0.200660
 42
0.000000
  0
VERTEX
  8
SILKSCREEN_BOTTOM
 10
47.358300
 20
24.947880
 40
0.200660
 41
0.200660
 42
0.000000
  0
SEQEND
  0
POLYLINE
  8
SILKSCREEN_BOTTOM
 66
1
 70
0
 40
0.000000
 41
0.000000
 39
0.000000
  0
VERTEX
  8
SILKSCREEN_BOTTOM
 10
50.281840
 20
22.047200
 40
0.149860
 41
0.149860
 42
1.000000
  0
VERTEX
  8
SILKSCREEN_BOTTOM
 10
50.027840
 20
22.047200
 40
0.149860
 41
0.149860
 42
1.000000
  0
VERTEX
  8
SILKSCREEN_BOTTOM
 10
50.281840
 20
22.047200
 40
0.149860
 41
0.149860
 42
0.000000
  0
SEQEND
  0
CIRCLE
  8
TOP
 10
56.090820
 20
14.483080
 40
0.849630
  0
CIRCLE
  8
BOTTOM
 10
56.090820
 20
14.483080
 40
0.849630
  0
CIRCLE
  8
TOP
 10
53.535580
 20
10.982960
 40
0.849630
  0
CIRCLE
  8
BOTTOM
 10
53.535580
 20
10.982960
 40
0.849630
  0
POLYLINE
  8
SILKSCREEN_BOTTOM
 66
1
 70
0
 40
0.000000
 41
0.000000
 39
0.000000
  0
VERTEX
  8
SILKSCREEN_BOTTOM
 10
42.336720
 20
6.733540
 40
0.200660
 41
0.200660
 42
0.000000
  0
VERTEX
  8
SILKSCREEN_BOTTOM
 10
57.835800
 20
6.733540
 40
0.200660
 41
0.200660
 42
0.000000
  0
SEQEND
  0
POLYLINE
  8
SILKSCREEN_BOTTOM
 66
1
 70
0
 40
0.000000
 41
0.000000
 39
0.000000
  0
VERTEX
  8
SILKSCREEN_BOTTOM
 10
42.336720
 20
6.733540
 40
0.200660
 41
0.200660
 42
0.000000
  0
VERTEX
  8
SILKSCREEN_BOTTOM
 10
42.336720
 20
22.232620
 40
0.200660
 41
0.200660
 42
0.000000
  0
SEQEND
  0
POLYLINE
  8
SILKSCREEN_BOTTOM
 66
1
 70
0
 40
0.000000
 41
0.000000
 39
0.000000
  0
VERTEX
  8
SILKSCREEN_BOTTOM
 10
44.772580
 20
8.509000
 40
0.200660
 41
0.200660
 42
0.000000
  0
VERTEX
  8
SILKSCREEN_BOTTOM
 10
44.772580
 20
6.733540
 40
0.200660
 41
0.200660
 42
0.000000
  0
SEQEND
  0
POLYLINE
  8
SILKSCREEN_BOTTOM
 66
1
 70
0
 40
0.000000
 41
0.000000
 39
0.000000
  0
VERTEX
  8
SILKSCREEN_BOTTOM
 10
48.041560
 20
7.284720
 40
0.200660
 41
0.200660
 42
0.000000
  0
VERTEX
  8
SILKSCREEN_BOTTOM
 10
48.041560
 20
8.509000
 40
0.200660
 41
0.200660
 42
0.000000
  0
SEQEND
  0
POLYLINE
  8
SILKSCREEN_BOTTOM
 66
1
 70
0
 40
0.000000
 41
0.000000
 39
0.000000
  0
VERTEX
  8
SILKSCREEN_BOTTOM
 10
49.263300
 20
7.284720
 40
0.200660
 41
0.200660
 42
0.000000
  0
VERTEX
  8
SILKSCREEN_BOTTOM
 10
48.041560
 20
7.284720
 40
0.200660
 41
0.200660
 42
0.000000
  0
SEQEND
  0
POLYLINE
  8
SILKSCREEN_BOTTOM
 66
1
 70
0
 40
0.000000
 41
0.000000
 39
0.000000
  0
VERTEX
  8
SILKSCREEN_BOTTOM
 10
49.263300
 20
7.284720
 40
0.200660
 41
0.200660
 42
0.000000
  0
VERTEX
  8
SILKSCREEN_BOTTOM
 10
52.130960
 20
7.284720
 40
0.200660
 41
0.200660
 42
0.000000
  0
SEQEND
  0
POLYLINE
  8
SILKSCREEN_BOTTOM
 66
1
 70
0
 40
0.000000
 41
0.000000
 39
0.000000
  0
VERTEX
  8
SILKSCREEN_BOTTOM
 10
52.130960
 20
7.284720
 40
0.200660
 41
0.200660
 42
0.000000
  0
VERTEX
  8
SILKSCREEN_BOTTOM
 10
52.130960
 20
8.509000
 40
0.200660
 41
0.200660
 42
0.000000
  0
SEQEND
  0
POLYLINE
  8
SILKSCREEN_BOTTOM
 66
1
 70
0
 40
0.000000
 41
0.000000
 39
0.000000
  0
VERTEX
  8
SILKSCREEN_BOTTOM
 10
55.399940
 20
6.733540
 40
0.200660
 41
0.200660
 42
0.000000
  0
VERTEX
  8
SILKSCREEN_BOTTOM
 10
55.399940
 20
8.509000
 40
0.200660
 41
0.200660
 42
0.000000
  0
SEQEND
  0
POLYLINE
  8
SILKSCREEN_BOTTOM
 66
1
 70
0
 40
0.000000
 41
0.000000
 39
0.000000
  0
VERTEX
  8
SILKSCREEN_BOTTOM
 10
57.835800
 20
22.232620
 40
0.200660
 41
0.200660
 42
0.000000
  0
VERTEX
  8
SILKSCREEN_BOTTOM
 10
57.835800
 20
6.733540
 40
0.200660
 41
0.200660
 42
0.000000
  0
SEQEND
  0
POLYLINE
  8
SILKSCREEN_BOTTOM
 66
1
 70
0
 40
0.000000
 41
0.000000
 39
0.000000
  0
VERTEX
  8
SILKSCREEN_BOTTOM
 10
48.041560
 20
8.509000
 40
0.200660
 41
0.200660
 42
0.000000
  0
VERTEX
  8
SILKSCREEN_BOTTOM
 10
44.772580
 20
8.509000
 40
0.200660
 41
0.200660
 42
0.000000
  0
SEQEND
  0
POLYLINE
  8
SILKSCREEN_BOTTOM
 66
1
 70
0
 40
0.000000
 41
0.000000
 39
0.000000
  0
VERTEX
  8
SILKSCREEN_BOTTOM
 10
52.130960
 20
8.509000
 40
0.200660
 41
0.200660
 42
0.000000
  0
VERTEX
  8
SILKSCREEN_BOTTOM
 10
55.399940
 20
8.509000
 40
0.200660
 41
0.200660
 42
0.000000
  0
SEQEND
  0
POLYLINE
  8
SILKSCREEN_BOTTOM
 66
1
 70
0
 40
0.000000
 41
0.000000
 39
0.000000
  0
VERTEX
  8
SILKSCREEN_BOTTOM
 10
43.558460
 20
12.583160
 40
0.200660
 41
0.200660
 42
0.000000
  0
VERTEX
  8
SILKSCREEN_BOTTOM
 10
43.558460
 20
10.665460
 40
0.200660
 41
0.200660
 42
0.000000
  0
SEQEND
  0
POLYLINE
  8
SILKSCREEN_BOTTOM
 66
1
 70
0
 40
0.000000
 41
0.000000
 39
0.000000
  0
VERTEX
  8
SILKSCREEN_BOTTOM
 10
43.558460
 20
10.665460
 40
0.200660
 41
0.200660
 42
0.000000
  0
VERTEX
  8
SILKSCREEN_BOTTOM
 10
42.336720
 20
10.665460
 40
0.200660
 41
0.200660
 42
0.000000
  0
SEQEND
  0
POLYLINE
  8
SILKSCREEN_BOTTOM
 66
1
 70
0
 40
0.000000
 41
0.000000
 39
0.000000
  0
VERTEX
  8
SILKSCREEN_BOTTOM
 10
54.836060
 20
10.982960
 40
0.200660
 41
0.200660
 42
1.000092
  0
VERTEX
  8
SILKSCREEN_BOTTOM
 10
52.237640
 20
10.982960
 40
0.200660
 41
0.200660
 42
0.999908
  0
VERTEX
  8
SILKSCREEN_BOTTOM
 10
54.836060
 20
10.982960
 40
0.200660
 41
0.200660
 42
0.000000
  0
SEQEND
  0
POLYLINE
  8
SILKSCREEN_BOTTOM
 66
1
 70
0
 40
0.000000
 41
0.000000
 39
0.000000
  0
VERTEX
  8
SILKSCREEN_BOTTOM
 10
52.285900
 20
14.483080
 40
0.200660
 41
0.200660
 42
1.000000
  0
VERTEX
  8
SILKSCREEN_BOTTOM
 10
47.886620
 20
14.483080
 40
0.200660
 41
0.200660
 42
1.000000
  0
VERTEX
  8
SILKSCREEN_BOTTOM
 10
52.285900
 20
14.483080
 40
0.200660
 41
0.200660
 42
0.000000
  0
SEQEND
  0
POLYLINE
  8
SILKSCREEN_BOTTOM
 66
1
 70
0
 40
0.000000
 41
0.000000
 39
0.000000
  0
VERTEX
  8
SILKSCREEN_BOTTOM
 10
46.687740
 20
12.583160
 40
0.200660
 41
0.200660
 42
0.000000
  0
VERTEX
  8
SILKSCREEN_BOTTOM
 10
43.558460
 20
12.583160
 40
0.200660
 41
0.200660
 42
0.000000
  0
SEQEND
  0
POLYLINE
  8
SILKSCREEN_BOTTOM
 66
1
 70
0
 40
0.000000
 41
0.000000
 39
0.000000
  0
VERTEX
  8
SILKSCREEN_BOTTOM
 10
47.635160
 20
13.802360
 40
0.200660
 41
0.200660
 42
0.000000
  0
VERTEX
  8
SILKSCREEN_BOTTOM
 10
46.687740
 20
13.802360
 40
0.200660
 41
0.200660
 42
0.000000
  0
SEQEND
  0
POLYLINE
  8
SILKSCREEN_BOTTOM
 66
1
 70
0
 40
0.000000
 41
0.000000
 39
0.000000
  0
VERTEX
  8
SILKSCREEN_BOTTOM
 10
46.687740
 20
13.802360
 40
0.200660
 41
0.200660
 42
0.000000
  0
VERTEX
  8
SILKSCREEN_BOTTOM
 10
46.687740
 20
12.583160
 40
0.200660
 41
0.200660
 42
0.000000
  0
SEQEND
  0
POLYLINE
  8
SILKSCREEN_BOTTOM
 66
1
 70
0
 40
0.000000
 41
0.000000
 39
0.000000
  0
VERTEX
  8
SILKSCREEN_BOTTOM
 10
47.635160
 20
15.163800
 40
0.200660
 41
0.200660
 42
0.000000
  0
VERTEX
  8
SILKSCREEN_BOTTOM
 10
47.635160
 20
13.802360
 40
0.200660
 41
0.200660
 42
0.000000
  0
SEQEND
  0
POLYLINE
  8
SILKSCREEN_BOTTOM
 66
1
 70
0
 40
0.000000
 41
0.000000
 39
0.000000
  0
VERTEX
  8
SILKSCREEN_BOTTOM
 10
57.388760
 20
14.483080
 40
0.200660
 41
0.200660
 42
1.000000
  0
VERTEX
  8
SILKSCREEN_BOTTOM
 10
54.790340
 20
14.483080
 40
0.200660
 41
0.200660
 42
1.000000
  0
VERTEX
  8
SILKSCREEN_BOTTOM
 10
57.388760
 20
14.483080
 40
0.200660
 41
0.200660
 42
0.000000
  0
SEQEND
  0
POLYLINE
  8
SILKSCREEN_BOTTOM
 66
1
 70
0
 40
0.000000
 41
0.000000
 39
0.000000
  0
VERTEX
  8
SILKSCREEN_BOTTOM
 10
47.635160
 20
15.163800
 40
0.200660
 41
0.200660
 42
0.000000
  0
VERTEX
  8
SILKSCREEN_BOTTOM
 10
46.687740
 20
15.163800
 40
0.200660
 41
0.200660
 42
0.000000
  0
SEQEND
  0
POLYLINE
  8
SILKSCREEN_BOTTOM
 66
1
 70
0
 40
0.000000
 41
0.000000
 39
0.000000
  0
VERTEX
  8
SILKSCREEN_BOTTOM
 10
46.687740
 20
16.383000
 40
0.200660
 41
0.200660
 42
0.000000
  0
VERTEX
  8
SILKSCREEN_BOTTOM
 10
46.687740
 20
15.163800
 40
0.200660
 41
0.200660
 42
0.000000
  0
SEQEND
  0
POLYLINE
  8
SILKSCREEN_BOTTOM
 66
1
 70
0
 40
0.000000
 41
0.000000
 39
0.000000
  0
VERTEX
  8
SILKSCREEN_BOTTOM
 10
46.687740
 20
16.383000
 40
0.200660
 41
0.200660
 42
0.000000
  0
VERTEX
  8
SILKSCREEN_BOTTOM
 10
43.558460
 20
16.383000
 40
0.200660
 41
0.200660
 42
0.000000
  0
SEQEND
  0
POLYLINE
  8
SILKSCREEN_BOTTOM
 66
1
 70
0
 40
0.000000
 41
0.000000
 39
0.000000
  0
VERTEX
  8
SILKSCREEN_BOTTOM
 10
43.558460
 20
18.300700
 40
0.200660
 41
0.200660
 42
0.000000
  0
VERTEX
  8
SILKSCREEN_BOTTOM
 10
43.558460
 20
16.383000
 40
0.200660
 41
0.200660
 42
0.000000
  0
SEQEND
  0
POLYLINE
  8
SILKSCREEN_BOTTOM
 66
1
 70
0
 40
0.000000
 41
0.000000
 39
0.000000
  0
VERTEX
  8
SILKSCREEN_BOTTOM
 10
43.558460
 20
18.300700
 40
0.200660
 41
0.200660
 42
0.000000
  0
VERTEX
  8
SILKSCREEN_BOTTOM
 10
42.336720
 20
18.300700
 40
0.200660
 41
0.200660
 42
0.000000
  0
SEQEND
  0
POLYLINE
  8
SILKSCREEN_BOTTOM
 66
1
 70
0
 40
0.000000
 41
0.000000
 39
0.000000
  0
VERTEX
  8
SILKSCREEN_BOTTOM
 10
44.772580
 20
22.232620
 40
0.200660
 41
0.200660
 42
0.000000
  0
VERTEX
  8
SILKSCREEN_BOTTOM
 10
44.772580
 20
20.457160
 40
0.200660
 41
0.200660
 42
0.000000
  0
SEQEND
  0
POLYLINE
  8
SILKSCREEN_BOTTOM
 66
1
 70
0
 40
0.000000
 41
0.000000
 39
0.000000
  0
VERTEX
  8
SILKSCREEN_BOTTOM
 10
48.041560
 20
20.457160
 40
0.200660
 41
0.200660
 42
0.000000
  0
VERTEX
  8
SILKSCREEN_BOTTOM
 10
44.772580
 20
20.457160
 40
0.200660
 41
0.200660
 42
0.000000
  0
SEQEND
  0
POLYLINE
  8
SILKSCREEN_BOTTOM
 66
1
 70
0
 40
0.000000
 41
0.000000
 39
0.000000
  0
VERTEX
  8
SILKSCREEN_BOTTOM
 10
48.041560
 20
21.681440
 40
0.200660
 41
0.200660
 42
0.000000
  0
VERTEX
  8
SILKSCREEN_BOTTOM
 10
48.041560
 20
20.457160
 40
0.200660
 41
0.200660
 42
0.000000
  0
SEQEND
  0
POLYLINE
  8
SILKSCREEN_BOTTOM
 66
1
 70
0
 40
0.000000
 41
0.000000
 39
0.000000
  0
VERTEX
  8
SILKSCREEN_BOTTOM
 10
52.130960
 20
21.681440
 40
0.200660
 41
0.200660
 42
0.000000
  0
VERTEX
  8
SILKSCREEN_BOTTOM
 10
52.130960
 20
20.457160
 40
0.200660
 41
0.200660
 42
0.000000
  0
SEQEND
  0
POLYLINE
  8
SILKSCREEN_BOTTOM
 66
1
 70
0
 40
0.000000
 41
0.000000
 39
0.000000
  0
VERTEX
  8
SILKSCREEN_BOTTOM
 10
52.130960
 20
20.457160
 40
0.200660
 41
0.200660
 42
0.000000
  0
VERTEX
  8
SILKSCREEN_BOTTOM
 10
55.399940
 20
20.457160
 40
0.200660
 41
0.200660
 42
0.000000
  0
SEQEND
  0
POLYLINE
  8
SILKSCREEN_BOTTOM
 66
1
 70
0
 40
0.000000
 41
0.000000
 39
0.000000
  0
VERTEX
  8
SILKSCREEN_BOTTOM
 10
55.399940
 20
22.232620
 40
0.200660
 41
0.200660
 42
0.000000
  0
VERTEX
  8
SILKSCREEN_BOTTOM
 10
55.399940
 20
20.457160
 40
0.200660
 41
0.200660
 42
0.000000
  0
SEQEND
  0
POLYLINE
  8
SILKSCREEN_BOTTOM
 66
1
 70
0
 40
0.000000
 41
0.000000
 39
0.000000
  0
VERTEX
  8
SILKSCREEN_BOTTOM
 10
57.835800
 20
22.232620
 40
0.200660
 41
0.200660
 42
0.000000
  0
VERTEX
  8
SILKSCREEN_BOTTOM
 10
42.336720
 20
22.232620
 40
0.200660
 41
0.200660
 42
0.000000
  0
SEQEND
  0
POLYLINE
  8
SILKSCREEN_BOTTOM
 66
1
 70
0
 40
0.000000
 41
0.000000
 39
0.000000
  0
VERTEX
  8
SILKSCREEN_BOTTOM
 10
49.263300
 20
21.681440
 40
0.200660
 41
0.200660
 42
0.000000
  0
VERTEX
  8
SILKSCREEN_BOTTOM
 10
48.041560
 20
21.681440
 40
0.200660
 41
0.200660
 42
0.000000
  0
SEQEND
  0
POLYLINE
  8
SILKSCREEN_BOTTOM
 66
1
 70
0
 40
0.000000
 41
0.000000
 39
0.000000
  0
VERTEX
  8
SILKSCREEN_BOTTOM
 10
49.263300
 20
21.681440
 40
0.200660
 41
0.200660
 42
0.000000
  0
VERTEX
  8
SILKSCREEN_BOTTOM
 10
52.130960
 20
21.681440
 40
0.200660
 41
0.200660
 42
0.000000
  0
SEQEND
  0
POLYLINE
  8
OUTLINE
 66
1
 70
1
 40
0.000000
 41
0.000000
 39
0.000000
  0
VERTEX
  8
OUTLINE
 10
52.285900
 20
14.483080
 40
0.000000
 41
0.000000
 42
1.000000
  0
VERTEX
  8
OUTLINE
 10
47.886620
 20
14.483080
 40
0.000000
 41
0.000000
 42
1.000000
  0
SEQEND
  0
POLYLINE
  8
TOP
 66
1
 70
1
 40
0.000000
 41
0.000000
 39
0.000000
  0
VERTEX
  8
TOP
 10
61.127640
 20
15.999460
 40
0.000000
 41
0.000000
 42
0.000000
  0
VERTEX
  8
TOP
 10
59.527440
 20
15.999460
 40
0.000000
 41
0.000000
 42
0.000000
  0
VERTEX
  8
TOP
 10
59.527440
 20
16.598900
 40
0.000000
 41
0.000000
 42
0.000000
  0
VERTEX
  8
TOP
 10
61.127640
 20
16.598900
 40
0.000000
 41
0.000000
 42
0.000000
  0
SEQEND
  0
POLYLINE
  8
TOP
 66
1
 70
1
 40
0.000000
 41
0.000000
 39
0.000000
  0
VERTEX
  8
TOP
 10
61.127640
 20
15.001240
 40
0.000000
 41
0.000000
 42
0.000000
  0
VERTEX
  8
TOP
 10
59.527440
 20
15.001240
 40
0.000000
 41
0.000000
 42
0.000000
  0
VERTEX
  8
TOP
 10
59.527440
 20
15.600680
 40
0.000000
 41
0.000000
 42
0.000000
  0
VERTEX
  8
TOP
 10
61.127640
 20
15.600680
 40
0.000000
 41
0.000000
 42
0.000000
  0
SEQEND
  0
POLYLINE
  8
TOP
 66
1
 70
1
 40
0.000000
 41
0.000000
 39
0.000000
  0
VERTEX
  8
TOP
 10
61.127640
 20
14.000480
 40
0.000000
 41
0.000000
 42
0.000000
  0
VERTEX
  8
TOP
 10
59.527440
 20
14.000480
 40
0.000000
 41
0.000000
 42
0.000000
  0
VERTEX
  8
TOP
 10
59.527440
 20
14.599920
 40
0.000000
 41
0.000000
 42
0.000000
  0
VERTEX
  8
TOP
 10
61.127640
 20
14.599920
 40
0.000000
 41
0.000000
 42
0.000000
  0
SEQEND
  0
POLYLINE
  8
TOP
 66
1
 70
1
 40
0.000000
 41
0.000000
 39
0.000000
  0
VERTEX
  8
TOP
 10
61.127640
 20
12.999720
 40
0.000000
 41
0.000000
 42
0.000000
  0
VERTEX
  8
TOP
 10
59.527440
 20
12.999720
 40
0.000000
 41
0.000000
 42
0.000000
  0
VERTEX
  8
TOP
 10
59.527440
 20
13.599160
 40
0.000000
 41
0.000000
 42
0.000000
  0
VERTEX
  8
TOP
 10
61.127640
 20
13.599160
 40
0.000000
 41
0.000000
 42
0.000000
  0
SEQEND
  0
POLYLINE
  8
TOP
 66
1
 70
1
 40
0.000000
 41
0.000000
 39
0.000000
  0
VERTEX
  8
TOP
 10
61.127640
 20
12.001500
 40
0.000000
 41
0.000000
 42
0.000000
  0
VERTEX
  8
TOP
 10
59.527440
 20
12.001500
 40
0.000000
 41
0.000000
 42
0.000000
  0
VERTEX
  8
TOP
 10
59.527440
 20
12.600940
 40
0.000000
 41
0.000000
 42
0.000000
  0
VERTEX
  8
TOP
 10
61.127640
 20
12.600940
 40
0.000000
 41
0.000000
 42
0.000000
  0
SEQEND
  0
POLYLINE
  8
TOP
 66
1
 70
1
 40
0.000000
 41
0.000000
 39
0.000000
  0
VERTEX
  8
TOP
 10
59.025790
 20
10.401300
 40
0.000000
 41
0.000000
 42
0.000000
  0
VERTEX
  8
TOP
 10
57.026810
 20
10.401300
 40
0.000000
 41
0.000000
 42
0.000000
  0
VERTEX
  8
TOP
 10
57.026810
 20
11.600180
 40
0.000000
 41
0.000000
 42
0.000000
  0
VERTEX
  8
TOP
 10
59.025790
 20
11.600180
 40
0.000000
 41
0.000000
 42
0.000000
  0
SEQEND
  0
POLYLINE
  8
TOP
 66
1
 70
1
 40
0.000000
 41
0.000000
 39
0.000000
  0
VERTEX
  8
TOP
 10
59.025790
 20
17.000220
 40
0.000000
 41
0.000000
 42
0.000000
  0
VERTEX
  8
TOP
 10
57.026810
 20
17.000220
 40
0.000000
 41
0.000000
 42
0.000000
  0
VERTEX
  8
TOP
 10
57.026810
 20
18.199100
 40
0.000000
 41
0.000000
 42
0.000000
  0
VERTEX
  8
TOP
 10
59.025790
 20
18.199100
 40
0.000000
 41
0.000000
 42
0.000000
  0
SEQEND
  0
POLYLINE
  8
ASSEMBLY_TOP
 66
1
 70
0
 40
0.000000
 41
0.000000
 39
0.000000
  0
VERTEX
  8
ASSEMBLY_TOP
 10
57.533540
 20
14.300200
 40
0.000000
 41
0.000000
 42
0.000000
  0
VERTEX
  8
ASSEMBLY_TOP
 10
57.533540
 20
10.800080
 40
0.000000
 41
0.000000
 42
0.000000
  0
VERTEX
  8
ASSEMBLY_TOP
 10
61.432440
 20
10.800080
 40
0.000000
 41
0.000000
 42
0.000000
  0
VERTEX
  8
ASSEMBLY_TOP
 10
61.432440
 20
17.800320
 40
0.000000
 41
0.000000
 42
0.000000
  0
VERTEX
  8
ASSEMBLY_TOP
 10
57.533540
 20
17.800320
 40
0.000000
 41
0.000000
 42
0.000000
  0
VERTEX
  8
ASSEMBLY_TOP
 10
57.533540
 20
14.300200
 40
0.000000
 41
0.000000
 42
0.000000
  0
VERTEX
  8
ASSEMBLY_TOP
 10
57.787540
 20
14.300200
 40
0.000000
 41
0.000000
 42
0.000000
  0
SEQEND
  0
POLYLINE
  8
SILKSCREEN_TOP
 66
1
 70
0
 40
0.000000
 41
0.000000
 39
0.000000
  0
VERTEX
  8
SILKSCREEN_TOP
 10
57.533540
 20
10.800080
 40
0.200660
 41
0.200660
 42
0.000000
  0
VERTEX
  8
SILKSCREEN_TOP
 10
61.432440
 20
10.800080
 40
0.200660
 41
0.200660
 42
0.000000
  0
VERTEX
  8
SILKSCREEN_TOP
 10
61.432440
 20
17.800320
 40
0.200660
 41
0.200660
 42
0.000000
  0
VERTEX
  8
SILKSCREEN_TOP
 10
57.533540
 20
17.800320
 40
0.200660
 41
0.200660
 42
0.000000
  0
VERTEX
  8
SILKSCREEN_TOP
 10
57.533540
 20
10.800080
 40
0.200660
 41
0.200660
 42
0.000000
  0
SEQEND
  0
TEXT
  8
SILKSCREEN_TOP
 10
58.668073
 20
14.300200
 11
58.752740
 21
14.300200
 40
0.254000
 41
1.100000
 50
90.000000
  7
STANDARD
 71
0
 72
1
  1
J1
 73
0
  0
POLYLINE
  8
OUTLINE
 66
1
 70
1
 40
0.000000
 41
0.000000
 39
0.000000
  0
VERTEX
  8
OUTLINE
 10
51.186080
 20
0.050800
 40
0.000000
 41
0.000000
 42
1.000000
  0
VERTEX
  8
OUTLINE
 10
48.988223
 20
0.051077
 40
0.000000
 41
0.000000
 42
1.000000
  0
SEQEND
  0
POLYLINE
  8
OUTLINE
 66
1
 70
1
 40
0.000000
 41
0.000000
 39
0.000000
  0
VERTEX
  8
OUTLINE
 10
51.186080
 20
28.917900
 40
0.000000
 41
0.000000
 42
1.000000
  0
VERTEX
  8
OUTLINE
 10
48.988223
 20
28.919004
 40
0.000000
 41
0.000000
 42
1.000000
  0
SEQEND
  0
POLYLINE
  8
OUTLINE
 66
1
 70
1
 40
0.000000
 41
0.000000
 39
0.000000
  0
VERTEX
  8
OUTLINE
 10
59.336940
 20
22.999700
 40
0.000000
 41
0.000000
 42
0.000000
  0
VERTEX
  8
OUTLINE
 10
59.336940
 20
19.824700
 40
0.000000
 41
0.000000
 42
0.000000
  0
VERTEX
  8
OUTLINE
 10
62.087760
 20
18.237200
 40
0.000000
 41
0.000000
 42
0.000000
  0
VERTEX
  8
OUTLINE
 10
62.087760
 20
10.731500
 40
0.000000
 41
0.000000
 42
0.000000
  0
VERTEX
  8
OUTLINE
 10
59.336940
 20
9.144000
 40
0.000000
 41
0.000000
 42
0.000000
  0
VERTEX
  8
OUTLINE
 10
59.336940
 20
5.969000
 40
0.000000
 41
0.000000
 42
0.000000
  0
VERTEX
  8
OUTLINE
 10
52.336700
 20
1.927860
 40
0.000000
 41
0.000000
 42
0.000000
  0
VERTEX
  8
OUTLINE
 10
52.336700
 20
-1.247140
 40
0.000000
 41
0.000000
 42
0.000000
  0
VERTEX
  8
OUTLINE
 10
50.086260
 20
-2.547620
 40
0.000000
 41
0.000000
 42
0.000000
  0
VERTEX
  8
OUTLINE
 10
47.838360
 20
-1.247140
 40
0.000000
 41
0.000000
 42
0.000000
  0
VERTEX
  8
OUTLINE
 10
47.838360
 20
1.927860
 40
0.000000
 41
0.000000
 42
0.000000
  0
VERTEX
  8
OUTLINE
 10
40.838120
 20
5.969000
 40
0.000000
 41
0.000000
 42
0.000000
  0
VERTEX
  8
OUTLINE
 10
40.838120
 20
9.144000
 40
0.000000
 41
0.000000
 42
0.000000
  0
VERTEX
  8
OUTLINE
 10
38.087300
 20
10.731500
 40
0.000000
 41
0.000000
 42
0.000000
  0
VERTEX
  8
OUTLINE
 10
38.087300
 20
18.237200
 40
0.000000
 41
0.000000
 42
0.000000
  0
VERTEX
  8
OUTLINE
 10
40.838120
 20
19.824700
 40
0.000000
 41
0.000000
 42
0.000000
  0
VERTEX
  8
OUTLINE
 10
40.838120
 20
22.999700
 40
0.000000
 41
0.000000
 42
0.000000
  0
VERTEX
  8
OUTLINE
 10
47.838360
 20
27.040840
 40
0.000000
 41
0.000000
 42
0.000000
  0
VERTEX
  8
OUTLINE
 10
47.838360
 20
30.218380
 40
0.000000
 41
0.000000
 42
0.000000
  0
VERTEX
  8
OUTLINE
 10
50.086260
 20
31.516320
 40
0.000000
 41
0.000000
 42
0.000000
  0
VERTEX
  8
OUTLINE
 10
52.336700
 20
30.218380
 40
0.000000
 41
0.000000
 42
0.000000
  0
VERTEX
  8
OUTLINE
 10
52.336700
 20
27.040840
 40
0.000000
 41
0.000000
 42
0.000000
  0
SEQEND
  0
ENDSEC
  0
EOF
